# xmcd
#
# Track frame offsets:
#	150
#	13832
#	27722
#	40742
#	56687
#	73560
#	85885
#	100870
#	128667
#	142382
#
# Disc length: 2151
#
# Revision: 3
# Processed by: cddbd v1.5.1PL0 Copyright (c) Steve Scherf et al.
# Submitted via: audiograbber 1.81.03
# Normalized: r1:DSETVAR1,TSWAP
#
DISCID=8e08650a
DTITLE=Various Artist - Sounding Out the Blues
DYEAR=1999
DGENRE=Blues
TTITLE0=Big Joe Turner - Shake, Rattle And Roll
TTITLE1=Charles Brown - I Want a G.I.R.L.
TTITLE2=Lena Horne - Love Me or Leave Me
TTITLE3=B.B. King - How Blue Can You Get
TTITLE4=John Lee Hooker - Blues Before Sunrise
TTITLE5=Joe Williams - Sugar Mama
TTITLE6=Leadbelly - In New Orleans
TTITLE7=Joe Liggins - Stinky
TTITLE8=Dinah Washington - Blues On My Weary Mind
TTITLE9=John Mayall - John Lee Boogie
EXTD=Compilation
EXTT0=
EXTT1=
EXTT2=
EXTT3=
EXTT4=
EXTT5=
EXTT6=
EXTT7=
EXTT8=
EXTT9=
PLAYORDER=
